<svg xmlns="http://www.w3.org/2000/svg" xmlns:xlink="http://www.w3.org/1999/xlink" width="434.442" height="139" viewBox="0 0 434.442 139"><defs><linearGradient id="a" x1="6.601" y1="-5.434" x2="6.407" y2="-1.423" gradientUnits="objectBoundingBox"><stop offset="0" stop-color="#0a84c6"/><stop offset="1" stop-color="#006ba0"/></linearGradient><linearGradient id="b" x1="4.042" y1="-2.509" x2="3.94" y2="-0.407" xlink:href="#a"/><linearGradient id="c" x1="3.442" y1="-1.064" x2="3.355" y2="0.184" gradientUnits="objectBoundingBox"><stop offset="0" stop-color="#8eaf25"/><stop offset="1" stop-color="#429135"/></linearGradient><linearGradient id="d" x1="5.994" y1="-4.579" x2="5.8" y2="-0.587" xlink:href="#c"/><linearGradient id="e" x1="6.631" y1="-4.169" x2="6.437" y2="-0.158" gradientUnits="objectBoundingBox"><stop offset="0" stop-color="#ffcc1e"/><stop offset="1" stop-color="#f2ac04"/></linearGradient><linearGradient id="f" x1="2.434" y1="-1.72" x2="2.377" y2="0.068" xlink:href="#e"/></defs><g transform="translate(-743 -470)"><path d="M7.239,7.228A24.541,24.541,0,0,0,0,24.7H0A24.545,24.545,0,0,0,7.239,42.176h0A24.632,24.632,0,0,0,24.714,49.4h0a24.624,24.624,0,0,0,17.471-7.226h0a24.729,24.729,0,0,0,5.433-26.658h0l-7.82,7.1A15.2,15.2,0,0,1,35.51,35.5h0a15.172,15.172,0,0,1-10.8,4.461h0a15.174,15.174,0,0,1-10.8-4.461h0A15.178,15.178,0,0,1,9.455,24.7h0a15.181,15.181,0,0,1,4.461-10.8h0A15.184,15.184,0,0,1,28.238,9.873h0L36.044,2.78A24.686,24.686,0,0,0,24.665,0h0A24.6,24.6,0,0,0,7.239,7.228" transform="translate(801.956 545.585)" fill-rule="evenodd" fill="url(#a)"/><path d="M3.074,3.075a10.539,10.539,0,0,0,0,14.878h0a10.418,10.418,0,0,0,5.166,2.824h0l9.437,42.39.653,2.891.008,0,.437,1.891.12.416A38.214,38.214,0,0,0,25.355,79.9h0a39.48,39.48,0,0,0,2.658,2.945h0a38.624,38.624,0,0,0,25.7,11.3h3.43a38.638,38.638,0,0,0,25.7-11.3h0a38.7,38.7,0,0,0,6.336-46.454h0l-6.814,6.193a29.923,29.923,0,0,1-5.821,33.965h0a29.9,29.9,0,0,1-42.235,0h0a30.075,30.075,0,0,1-2.057-2.272h0a29.466,29.466,0,0,1-4.868-8.582h0L16.932,18.848a10.094,10.094,0,0,0,1.02-.9h0a10.532,10.532,0,0,0,0-14.878h0A10.487,10.487,0,0,0,10.513,0h0a10.509,10.509,0,0,0-7.44,3.075" transform="translate(771.24 514.857)" fill-rule="evenodd" fill="url(#b)"/><path d="M11.339,11.345a38.81,38.81,0,0,0,0,54.829h0a38.763,38.763,0,0,0,8.632,6.514h0a38.73,38.73,0,0,0,18.6,4.831h0l-2-8.994a29.778,29.778,0,0,1-12.248-3.609h0L24.29,64.9s0,0,0,0h0l-.034-.017a30,30,0,0,1-6.619-5h0a29.9,29.9,0,0,1,0-42.237h0A29.994,29.994,0,0,1,46.342,9.865h0L90.012,23.54a10.483,10.483,0,0,0,2.979,6.034h0a10.529,10.529,0,0,0,14.872,0h0a10.455,10.455,0,0,0,3.084-7.438h0a10.449,10.449,0,0,0-3.084-7.44h0a10.525,10.525,0,0,0-14.872,0h0c-.115.115-.223.227-.327.344h0L48.743,1.293A38.652,38.652,0,0,0,38.822,0h0A38.929,38.929,0,0,0,11.339,11.345" transform="translate(743 486.612)" fill-rule="evenodd" fill="url(#c)"/><path d="M7.239,7.237A24.553,24.553,0,0,0,0,24.714H0A24.548,24.548,0,0,0,7.239,42.188h0A24.616,24.616,0,0,0,21.8,49.207h0l-2.36-10.6-.029-.122a15.094,15.094,0,0,1-5.127-3.346h0a15.291,15.291,0,0,1,0-21.59h0a15.288,15.288,0,0,1,21.592,0h0a15.274,15.274,0,0,1,.342,21.21h0l2.314,10.36a24.33,24.33,0,0,0,3.651-2.927h0a24.54,24.54,0,0,0,7.239-17.473h0A24.545,24.545,0,0,0,42.186,7.237h0A24.539,24.539,0,0,0,24.713,0h0A24.536,24.536,0,0,0,7.239,7.237" transform="translate(756.67 501.031)" fill-rule="evenodd" fill="url(#d)"/><path d="M7.146,7.239A23.512,23.512,0,0,0,5.124,9.592h0l10.045,3.143a15.136,15.136,0,0,1,9.453-3.281h0a15.159,15.159,0,0,1,10.8,4.463h0a15.166,15.166,0,0,1,4.461,10.8h0a15.172,15.172,0,0,1-4.461,10.8h0a15.167,15.167,0,0,1-10.8,4.463h0a15.162,15.162,0,0,1-10.8-4.463h0a15.075,15.075,0,0,1-3.8-6.346h0L0,26.024A24.433,24.433,0,0,0,7.146,42.189h0a24.635,24.635,0,0,0,17.475,7.224h0a24.63,24.63,0,0,0,17.471-7.224h0a24.543,24.543,0,0,0,7.241-17.475h0A24.543,24.543,0,0,0,42.092,7.239h0A24.541,24.541,0,0,0,24.621,0h0A24.547,24.547,0,0,0,7.146,7.239" transform="translate(818.808 484.034)" fill-rule="evenodd" fill="url(#e)"/><path d="M9.882,7.988a38.972,38.972,0,0,0-3.806,3.346h0A39.051,39.051,0,0,0,0,19.245H0L8.832,22.01a30.171,30.171,0,0,1,3.54-4.383h0a30.062,30.062,0,0,1,2.937-2.582h0a29.913,29.913,0,0,1,39.3,2.582h0a29.9,29.9,0,0,1,.1,42.147h0L20.79,90.585a10.5,10.5,0,0,0-11.5,2.265h0a10.442,10.442,0,0,0-3.082,7.436h0a10.446,10.446,0,0,0,3.082,7.438h0a10.47,10.47,0,0,0,7.438,3.076h0a10.468,10.468,0,0,0,7.434-3.076h0a10.53,10.53,0,0,0,2.609-10.551h0L60.751,66.31l.155-.147a38.821,38.821,0,0,0,0-54.829h0A38.762,38.762,0,0,0,33.449,0h0A38.55,38.55,0,0,0,9.882,7.988" transform="translate(809.938 470)" fill-rule="evenodd" fill="url(#f)"/><path d="M165.587,79.523h11.67V10.108h-11.67Zm219.789,0c-11.868,0-13.661-5.187-13.661-15.56V7.016h10.969V65.061c0,3.59,1.4,4.887,4.589,4.887h2.492v9.575Zm-141.8-50.267c-.483,0-.985.017-1.5.05a23.918,23.918,0,0,0-14.492,5.689c-2.593-3.575-6.766-5.538-12.73-5.538-.47,0-.957.021-1.451.055-.05,0-.1.01-.149.011a21.28,21.28,0,0,0-6.531,1.53,29.833,29.833,0,0,0-5.83,3.023v-4.02H189.92V79.523h10.971V43.282c2.372-1.562,6.483-3.752,10.87-3.752,5.087,0,8.179,2.992,8.179,9.875V79.523H230.91V47.808a32.988,32.988,0,0,0-.328-4.774c2.681-1.64,6.443-3.481,10.052-3.686.218-.01.435-.017.647-.017,5.286,0,8.179,2.99,8.179,9.672v30.52h10.971V46.811c0-11.469-5.286-17.555-16.856-17.555Zm68.609,25.432c0-12.266-3.491-25.232-18.352-25.232-.414,0-.844.017-1.278.048l-.16.013a17.429,17.429,0,0,0-4.637.978,26.873,26.873,0,0,0-6.392,3.328V30.056H270.4V99.469h10.971V77.008a26.29,26.29,0,0,0,4.346,1.852,21.268,21.268,0,0,0,7.421,1.26c.113,0,.216-.008.327-.008s.246.008.372.008a.154.154,0,0,0,.01-.019c14.567-.407,18.342-13.243,18.342-25.413ZM291.14,70.347a19.369,19.369,0,0,1-9.773-2.643V43a17.554,17.554,0,0,1,5.914-3.088,15.718,15.718,0,0,1,4.058-.581c8.677,0,9.773,8.576,9.773,15.457,0,7.383-1.295,15.56-9.972,15.56Zm59.036-40.291V65.993a17.9,17.9,0,0,1-9.859,4.029c-.271.015-.542.025-.812.025-5.983,0-7.48-3.689-7.48-10.071V30.056H321.054V63.465c0,11.769,5.884,16.753,14.662,16.753a21.135,21.135,0,0,0,9.474-2.074,37.69,37.69,0,0,0,4.986-2.668v4.047h10.971V30.056ZM416.789,50.3c-8.378-1.3-10.971-2.792-10.971-6.084,0-2.505,2.057-5.005,6.426-5.441a4.349,4.349,0,0,0,.456-.044,16.45,16.45,0,0,1,3.684-.078c.416.034.831.076,1.245.134.057.008.111.015.166.021a25.182,25.182,0,0,1,10.262,4.012c1.6-2.591,3.193-5.185,4.688-7.778-4.587-3.392-9.974-5.187-16.555-5.586A22.892,22.892,0,0,0,400.884,33.6c-.034.025-.067.052-.1.076-.069.053-.145.109-.21.162l0,0a13.474,13.474,0,0,0-5.23,10.977c0,10.572,9.476,12.766,18.751,14.162,6.481,1,9.474,2.593,9.474,6.084,0,2.847-2.2,4.621-5.217,5.42a21.031,21.031,0,0,1-6.351.464,23.764,23.764,0,0,1-13.961-5.884l-5.387,7.78A30.389,30.389,0,0,0,408.372,79.8s.008.006.011.006c.273.04.63.074,1.039.107a.234.234,0,0,0,.036,0c.294.023.613.044.964.061.189.01.376.019.565.025,1.278.05,2.828.065,4.5.021,10.872-.2,18.949-6.283,18.949-15.26,0-9.773-8.179-12.865-17.653-14.462ZM300.709,131.146c-6.292,0-7.245-2.75-7.245-8.25V92.7h5.819v30.779c0,1.9.739,2.589,2.431,2.589h1.323v5.078Zm-110.38-32.1V94.34h-24.8v5.341h17.592l-17.592,26.387v5.078h24.961v-5.5H172.54q8.891-13.277,17.788-26.6Zm220.627,18.481c0,6.8,1.934,13.99,10.175,13.99.229,0,.468-.01.708-.027.031,0,.059,0,.088-.008a9.614,9.614,0,0,0,2.572-.542,14.826,14.826,0,0,0,3.542-1.845v2.089h6.082V92.7h-6.082v12.455a14.42,14.42,0,0,0-2.41-1.029,11.806,11.806,0,0,0-4.113-.7c-.063,0-.12,0-.181,0s-.136,0-.206,0l-.006.01c-8.076.223-10.169,7.343-10.169,14.089Zm11.668-8.681a10.738,10.738,0,0,1,5.418,1.467v13.7a9.773,9.773,0,0,1-3.279,1.713,8.793,8.793,0,0,1-2.25.323c-4.81,0-5.42-4.757-5.42-8.57,0-4.092.72-8.628,5.53-8.628Zm-48.23,22.3V112.128a9.474,9.474,0,0,1,5.219-2.133c.143-.008.286-.013.43-.013,3.166,0,3.959,1.954,3.959,5.332v15.833h5.805V113.464c0-6.227-3.115-8.866-7.759-8.866a11.178,11.178,0,0,0-5.013,1.1,19.962,19.962,0,0,0-2.641,1.413v-2.141h-5.805v26.177Zm-140.78-14.332c0-6.476-2.966-11.326-8.675-12.14-.01,0-.015-.013-.023-.013a14.6,14.6,0,0,0-3.359-.115c-5.446.264-10.259,4.23-10.259,13.642,0,10.365,5.5,13.274,11.582,13.274a13.877,13.877,0,0,0,9.625-3.542l-3.067-3.966a8.633,8.633,0,0,1-6.029,2.433c-3.817,0-5.777-1.69-6.124-6.716h16.329ZM217.34,115.6c.359-3.288,1.53-5.1,3.292-5.744a6.35,6.35,0,0,1,2.777-.229c2.645.264,4.018,2.486,4.176,5.973Zm57.5,1.218c0-6.476-2.966-11.326-8.677-12.14-.008,0-.013-.013-.023-.013a14.58,14.58,0,0,0-3.357-.115c-5.448.264-10.26,4.23-10.26,13.642,0,10.365,5.5,13.274,11.582,13.274a13.87,13.87,0,0,0,9.625-3.542l-3.067-3.966a8.63,8.63,0,0,1-6.029,2.433c-3.817,0-5.777-1.69-6.124-6.716h16.331ZM258.569,115.6c.359-3.288,1.53-5.1,3.29-5.744a6.353,6.353,0,0,1,2.777-.229c2.645.264,4.02,2.486,4.178,5.973Zm76.517-11c-3.913,0-7.087.953-9.731,3.544l2.962,3.754a8.33,8.33,0,0,1,6.294-2.221c4.018,0,5.446,1.85,5.446,4.6V115.7H334.08c-6.98,0-10.31,2.962-10.31,7.982,0,4.921,3.489,7.776,8.989,7.776a12.462,12.462,0,0,0,5.5-1.058,7.053,7.053,0,0,0,1.8-1.169v1.91h5.87V114.064c0-7.192-4.6-9.466-10.841-9.466Zm3.174,21.418a10.808,10.808,0,0,1-3.968.687c-3.437,0-4.971-1.535-4.971-3.437,0-1.533,1.48-3.227,4.442-3.227h6.294v5.129a14.083,14.083,0,0,1-1.8.848Z" transform="translate(743 470)" fill="#242b38" fill-rule="evenodd"/></g></svg>